<svg xmlns="http://www.w3.org/2000/svg" height="1024" preserveAspectRatio="none" style="display: block;" version="1.1" viewBox="0 0 2048 2048" width="1024">
<defs>
	<linearGradient gradientUnits="userSpaceOnUse" id="Gradient1" x1="880.066" x2="893.5" y1="699.925" y2="686.517">
		<stop class="stop0" offset="0" stop-color="rgb(226,158,105)" stop-opacity="1"></stop>
		<stop class="stop1" offset="1" stop-color="rgb(221,215,161)" stop-opacity="1"></stop>
	</linearGradient>
	<linearGradient gradientUnits="userSpaceOnUse" id="Gradient2" x1="864.598" x2="879.935" y1="1358.11" y2="1374.71">
		<stop class="stop0" offset="0" stop-color="rgb(225,157,90)" stop-opacity="1"></stop>
		<stop class="stop1" offset="1" stop-color="rgb(233,214,150)" stop-opacity="1"></stop>
	</linearGradient>
</defs>
<path d="M 0 0 L 2048 0 L 2048 2048 L 0 2048 L 0 0 z" fill="rgb(23,80,85)" transform="translate(0,0)"></path>
<path d="M 552.895 353.163 C 556.467 354.451 555.461 353.305 556.97 355.878 C 554.874 379.6 556.27 413.069 556.289 437.91 C 556.141 489.834 556.346 541.759 556.904 593.681 C 610.603 539.158 671.893 516.853 744.238 551.856 C 704.884 513.466 684.589 483.306 678.205 426.529 C 676.98 405.091 674.699 377.036 681.632 356.84 C 682.842 353.312 706.51 358.082 710.817 358.814 C 751.209 365.808 790.201 382.756 819.007 412.491 C 872.842 468.061 883.332 558.075 824.561 614.198 C 836.289 621.83 845.719 631.697 856.259 640.637 C 896.429 674.71 924.979 716.28 957.543 756.788 C 955.683 722.571 946.607 703.035 951.796 664.33 C 958.701 612.818 1003.87 575.823 1044.1 546.387 C 1059.29 563.894 1068.51 582.57 1078.09 602.729 C 1104.66 658.578 1096.54 712.167 1047.22 751.493 C 1024.45 769.646 1006.7 777.443 980.13 789.169 C 989.794 805.669 998.65 821.234 1007.01 838.355 C 1015.87 856.159 1018.17 866.721 1028 884.836 C 1052.23 929.488 1106.1 991.125 1150.31 1014.59 C 1156.11 1017.67 1228.53 1014.88 1240.95 1015.08 C 1234.98 1010.85 1228.95 1004.56 1224.31 998.88 C 1191.42 957.905 1142 919.799 1117 873.792 C 1083.47 812.114 1122.41 744.313 1167.66 701.348 C 1175.33 694.069 1180.75 685.704 1190.32 680.642 C 1201.24 691.648 1210.2 704.718 1220.03 716.514 C 1284.14 793.477 1252.18 869.045 1190.76 936.859 C 1213.41 961.038 1236.45 984.85 1259.87 1008.28 C 1287.89 986.631 1301.81 964.932 1340.74 956.268 C 1376.39 948.334 1405.5 960.118 1435.17 979.608 C 1445.46 986.376 1491.39 1016.61 1493.39 1025.6 C 1492.9 1026.76 1492.14 1028.32 1491.12 1029.14 C 1405.84 1097.86 1348.12 1131.47 1260.47 1040.96 C 1237.88 1063.44 1212.88 1088.99 1191.41 1112.59 C 1221.96 1151.57 1248.11 1186.26 1253.77 1236.76 C 1257.18 1281.59 1223.42 1344 1185.59 1367.13 C 1141.92 1338.18 1105.88 1278.11 1106.52 1224.73 C 1107.23 1166.46 1150.25 1130.21 1187.63 1091.75 C 1206.41 1072.42 1225.33 1052.24 1244.79 1033.43 C 1216.55 1031.65 1182.17 1032.15 1153.79 1032.1 C 1110.49 1060.38 1081.88 1088.19 1049.47 1128.6 C 1043.28 1137.51 1029.94 1151.19 1026.27 1161 C 1012.96 1196.53 1000.05 1226.37 981.243 1259.51 C 1002.28 1267.53 1022.86 1277.23 1040.4 1291.45 C 1111.2 1348.82 1102.55 1437.97 1049.12 1503.93 C 970.688 1449.05 937.298 1387.5 958.769 1292 C 927.143 1334.68 868.553 1399.22 827.48 1431.26 C 848.977 1464.57 860.763 1489.43 860.454 1530.41 C 860.213 1572.68 842.978 1613.07 812.63 1642.5 C 779.39 1675.2 729.383 1693.47 683.101 1693.07 C 680.928 1681.58 681.001 1668.13 680.172 1656.43 C 677.683 1621.15 684.585 1584.48 702.923 1554 C 718.429 1528.22 740.525 1507.7 759.843 1485.07 C 759.999 1484.84 760.155 1484.6 760.311 1484.36 C 736.361 1502.15 716.093 1511.41 686.074 1513.26 C 632.199 1516.57 595.094 1489.18 556.906 1454.61 C 558.077 1532.94 556.86 1611.6 557.232 1689.95 C 557.246 1692.92 557.18 1692.31 555.21 1694.09 L 553.621 1693.27 C 552.214 1685.86 552.804 1669.22 552.846 1660.77 C 552.885 1645.76 552.846 1630.75 552.729 1615.74 C 552.027 1546.67 551.769 1477.59 551.955 1408.52 L 552.125 688.133 L 551.971 444.352 L 551.82 388.277 C 551.788 379.762 551.31 360.82 552.895 353.163 z" fill="rgb(17,38,45)" transform="translate(0,0)"></path>
<path d="M 556.966 614.608 C 644.714 698.278 717.449 697.946 811.658 624.329 C 816.352 629.003 821.863 633.495 826.781 637.997 C 851.686 660.8 876.142 683.97 898.272 709.519 C 905.386 717.732 913.478 725.656 919.788 734.504 C 857.945 683.917 805.002 698.874 745.751 746.299 C 736.374 753.805 721.527 767.528 711.645 773.08 C 711.888 773.362 712.131 773.645 712.374 773.927 C 799.2 858.31 873.442 877.86 964.547 797.159 C 980.125 821.459 999.44 858.457 1008.51 885.904 C 1005.26 896.283 997.407 907.597 991.377 916.88 C 958.673 967.225 925.816 994.682 875.016 1025.15 C 938.694 1060.28 971.165 1098.27 1007.13 1160.58 C 999.319 1181.92 991.338 1203.11 980.723 1223.23 C 976.809 1230.65 973.009 1238.12 969.504 1245.74 L 968.097 1248.58 C 964.929 1249.9 954.54 1240.62 951.068 1238.11 C 855.396 1169.09 784.893 1207.23 708.588 1277.86 C 715.576 1282.44 725.05 1290.43 731.546 1295.95 C 780.329 1337.37 846.054 1364.02 907.58 1329.82 C 902.971 1334.37 898.255 1339.61 894.022 1344.52 C 868.799 1373.77 841.027 1398.53 811.55 1423.41 C 789.407 1407.2 767.186 1394.8 742.482 1383 C 666.899 1346.88 609.797 1385.95 556.319 1439.05 C 557.115 1413.32 556.128 1384.54 556.19 1358.41 L 556.381 1160.16 L 556.966 614.608 z" fill="rgb(23,80,85)" transform="translate(0,0)"></path>
<path d="M 692.08 943.502 C 695.301 946.975 701.756 962.875 704.599 967.902 C 717.74 991.134 739.181 1008.91 763.866 1018.77 C 768.248 1020.52 773.37 1021.58 774.764 1026.34 C 772.444 1029.49 766.869 1030.44 762.901 1032.18 C 726.943 1047.92 708.034 1074.36 692.97 1109.09 L 691.872 1109.43 C 688.903 1105.53 687.916 1099.95 685.65 1095.43 C 675.437 1074.99 662.323 1055.37 643.081 1042.43 C 634.602 1036.73 626.893 1030.15 616.45 1029.9 C 613.006 1029.82 612.263 1028.95 611.769 1025.9 C 614.116 1023.18 616.781 1023.57 620.254 1022.15 C 663.212 1004.59 674.263 981.763 692.08 943.502 z" fill="rgb(17,38,45)" transform="translate(0,0)"></path>
<path d="M 692.053 955.551 C 695.391 961.239 697.302 966.621 701.403 972.86 C 717.874 997.917 738.494 1014.33 766.249 1025.2 C 729.371 1044.19 712.675 1056.91 694.38 1094.68 L 693.011 1097.11 C 690.903 1096.62 683.329 1080.17 680.851 1076.27 C 665.928 1052.78 648.144 1038.6 623.414 1026.55 C 659.182 1010.78 676.432 990.389 692.053 955.551 z" fill="rgb(212,218,220)" transform="translate(0,0)"></path>
<path d="M 683.864 359.806 C 688.882 360.244 693.888 360.81 698.877 361.506 C 752.41 369.139 795.634 389.147 829.719 432.49 C 869.337 482.869 872.544 571.879 817.291 613.134 C 815.056 614.372 811.764 615.441 811.16 618.111 C 798.149 629.245 784.108 639.115 769.228 647.589 C 720.418 675.819 676.635 685.36 625.407 658.248 C 610.77 650.501 565.231 621.205 557.542 607.573 C 557.328 605.723 556.936 602.351 558.148 600.824 C 612.36 532.518 708.334 517.875 774.263 579.082 C 779.448 583.895 800.186 606.06 805.185 603.643 C 802.026 592.786 756.158 557.392 745.437 546.899 C 735.782 537.45 727.1 528.241 718.345 517.335 C 682.868 473.138 677.501 414.413 683.864 359.806 z" fill="rgb(208,73,69)" transform="translate(0,0)"></path>
<path d="M 654.992 601.165 C 660.868 600.716 774.413 610.732 777.02 612.51 L 777.404 616.564 C 737.857 613.811 697.639 609.242 658.049 605.935 C 655.719 605.74 655.65 603.165 654.992 601.165 z" fill="rgb(17,38,45)" transform="translate(0,0)"></path>
<path d="M 761.654 456.798 C 778.473 462.747 826.2 535.872 821.153 553.517 C 820.691 553.353 818.158 552.162 818.091 551.949 C 809.348 523.994 794.638 499.197 775.76 476.898 C 770.769 471.003 760.253 464.12 761.654 456.798 z" fill="rgb(17,38,45)" transform="translate(0,0)"></path>
<path d="M 1020.39 881.35 C 1047.91 930.825 1078.83 967.931 1123.28 1002.94 C 1131.73 1009.6 1150.03 1018.46 1150.15 1027.22 C 1143.14 1034.81 1119.57 1049.42 1109.51 1058.15 C 1081.96 1082.03 1045.67 1120.96 1026.19 1151.53 C 1012.34 1173.25 1004.33 1213.1 987.434 1238.76 C 978.442 1244.79 979.151 1258.15 965.313 1266.59 L 964.304 1266.18 C 966.895 1258.88 971.606 1259.12 971.562 1251.81 C 972.685 1247.71 984.863 1227.32 987.219 1222.07 C 996.739 1200.86 1004.47 1180.64 1011.9 1158.67 C 987.995 1108.85 933.519 1049.66 884.716 1024.7 C 890.542 1021.62 896.248 1018.32 901.82 1014.8 C 939.396 990.871 973.682 954.27 997.285 916.63 C 1003.89 906.1 1010.95 897.071 1013.67 884.745 C 1015.96 883.259 1017.92 882.463 1020.39 881.35 z" fill="rgb(254,159,51)" transform="translate(0,0)"></path>
<path d="M 1017.47 951.531 C 1021.22 954.441 1027.43 965.213 1030.92 969.516 C 1050.4 993.501 1065.47 1010.12 1092.74 1024.58 C 1072.37 1032.89 1034.54 1072.29 1022.47 1091.5 L 1019.72 1095.6 C 1013.76 1097.1 1013.84 1084.49 1010.59 1080.27 C 992.782 1057.13 976.528 1037.35 950.179 1023.6 C 978.914 1007.47 1005.87 983.058 1017.47 951.531 z" fill="rgb(17,38,45)" transform="translate(0,0)"></path>
<path d="M 1018.58 964.51 C 1020.96 966.081 1035.11 983.049 1037.86 986.214 C 1052.76 1003.4 1061.97 1012.45 1080.95 1024.57 C 1054.2 1043.56 1043.01 1057.51 1021.73 1082.02 C 1019.87 1083.71 1020.92 1083.19 1018.63 1083.68 C 1004.32 1061.66 984.34 1038.24 962.561 1023.51 C 981.821 1011.91 1007.2 984.023 1018.58 964.51 z" fill="rgb(254,159,51)" transform="translate(0,0)"></path>
<path d="M 822.303 1433.8 C 834.92 1446.62 848.261 1478.03 852.097 1496.01 C 860.684 1536.05 853.104 1577.87 831.009 1612.35 C 804.692 1652.86 764.207 1675.35 717.78 1684.98 C 708.304 1686.82 696.829 1687.76 687.186 1688.18 C 686.358 1664.17 683.279 1645.86 685.487 1621.42 C 691.104 1559.25 731.804 1521.24 773.598 1479.99 C 790.564 1463.25 803.75 1449.09 822.303 1433.8 z" fill="rgb(208,73,69)" transform="translate(0,0)"></path>
<path d="M 816.686 1503.16 C 819.205 1504 818.229 1503.19 819.841 1505.4 C 818.422 1522.7 777.679 1583.92 764.05 1598.14 C 761.809 1596.87 761.93 1596.99 760.345 1594.97 C 763.44 1589.18 777.153 1573.65 781.983 1566.36 C 795.855 1545.41 805.721 1525.61 816.686 1503.16 z" fill="rgb(17,38,45)" transform="translate(0,0)"></path>
<path d="M 1189.15 686.454 C 1254.09 760.786 1276.83 814.104 1212.19 901.703 C 1203.2 913.886 1195.2 924.796 1184.76 936.115 C 1182.63 934.36 1182.03 933.531 1180.21 931.489 L 1178.26 929.745 L 1173.11 936.178 C 1140.99 902.856 1108.94 869.708 1110.06 820.528 C 1111.32 765.368 1149.19 724.209 1187.26 688.188 C 1187.89 687.603 1188.51 687.025 1189.15 686.454 z" fill="rgb(208,73,69)" transform="translate(0,0)"></path>
<path d="M 1178.26 929.745 C 1162.27 894.043 1168.08 828.963 1181.92 792.194 C 1182.75 789.986 1183.06 789.248 1185.03 788.102 L 1186.41 788.747 C 1187.51 794.193 1184.61 803.219 1183.03 808.598 C 1173.62 840.789 1171.16 873.174 1176.48 906.348 C 1177.58 913.243 1180.57 924.878 1180.21 931.489 L 1178.26 929.745 z" fill="rgb(17,38,45)" transform="translate(0,0)"></path>
<path d="M 1178.22 1108.79 C 1180.72 1111.39 1182.51 1111.28 1186.11 1111.91 C 1187.12 1115.88 1199.23 1129.83 1202.24 1134.04 C 1236.37 1181.84 1264.1 1228.49 1239.89 1288.1 C 1225.76 1322.87 1212.72 1336.36 1186.24 1361.25 C 1135.47 1324.92 1096.11 1253.03 1117.43 1190.22 C 1127.69 1160.01 1155.1 1130.69 1178.22 1108.79 z" fill="rgb(208,73,69)" transform="translate(0,0)"></path>
<path d="M 1180.59 1118.75 C 1180.63 1125.72 1178.03 1138.71 1177.23 1146.44 C 1175.06 1167.24 1175.18 1188.21 1177.59 1208.98 C 1179.69 1227.6 1185.67 1242.42 1189.14 1260.34 C 1189.37 1261.55 1187.29 1262.24 1186.3 1262.8 C 1177.96 1243.51 1173.41 1220.79 1171.47 1199.93 C 1169.78 1181.71 1168.69 1133.09 1180.59 1118.75 z" fill="rgb(17,38,45)" transform="translate(0,0)"></path>
<path d="M 555.593 1447.18 C 562.958 1437.08 571.631 1431.43 580.162 1423.21 C 660.423 1345.9 727.444 1369.72 811.395 1428.6 L 805.995 1433.18 C 803.774 1434.88 800.45 1437.57 798.198 1438.97 C 792.522 1445.03 780.399 1456.37 778.534 1463.94 C 771.386 1473.58 746.518 1489.17 735.68 1494.69 C 665.619 1530.33 605.829 1494.19 555.593 1447.18 z" fill="rgb(208,73,69)" transform="translate(0,0)"></path>
<path d="M 798.198 1438.97 C 766.47 1439.79 734.747 1440.81 703.032 1442.04 C 692.266 1442.43 659.796 1445.57 652.616 1441 L 653.088 1439.35 C 658.231 1437.75 682.939 1437.33 689.614 1437.08 L 759.704 1434.68 C 775.013 1434.26 790.823 1434.44 805.995 1433.18 C 803.774 1434.88 800.45 1437.57 798.198 1438.97 z" fill="rgb(17,38,45)" transform="translate(0,0)"></path>
<path d="M 715.581 1277.48 C 782.495 1216.79 847.458 1178.13 934.39 1232.43 C 945.97 1239.66 956.635 1249.16 967.507 1257.47 C 965.203 1260.41 960.2 1267.39 959.03 1271 C 958.125 1272.28 956.297 1275.04 955.318 1276.05 C 945.821 1289.16 934.623 1305.85 923.724 1317.3 C 917.831 1317.76 897.001 1329.65 889.473 1332.47 C 819.683 1358.56 767.35 1317.96 715.581 1277.48 z" fill="rgb(208,73,69)" transform="translate(0,0)"></path>
<path d="M 955.318 1276.05 C 926.636 1275.62 897.906 1276.62 869.232 1276.52 C 862.188 1276.49 828.109 1279.15 824.629 1274.82 C 825.965 1273.03 828.06 1271.55 830.385 1271.56 C 862.814 1271.62 895.264 1270.88 927.686 1270.29 C 934.983 1270.16 952.801 1269.12 959.03 1271 C 958.125 1272.28 956.297 1275.04 955.318 1276.05 z" fill="rgb(17,38,45)" transform="translate(0,0)"></path>
<path d="M 718.817 774.676 C 784.365 714.894 851.127 675.888 926.106 745.595 C 931.679 750.776 942.118 765.74 948.37 767.661 C 949.172 768.76 950.249 770.629 951.356 771.209 C 952.52 771.915 953.978 773.416 954.985 774.348 L 957.083 773.875 C 959.184 769.332 953.972 763.349 952.463 757.928 C 955.929 762.158 958.596 765.695 961.775 770.103 C 961.619 777.618 965.173 783.412 972.243 786.421 L 974.355 790.042 C 971.056 791.506 970.952 791.616 968.918 795.492 L 965.362 791.248 C 959.224 796.78 948.824 803.953 941.856 808.799 C 915.729 826.969 892.665 841.77 860.099 844.049 C 805.585 847.863 757.686 808.411 718.817 774.676 z" fill="rgb(208,73,69)" transform="translate(0,0)"></path>
<path d="M 958.907 785.822 C 954.155 786.157 940.848 784.531 935.355 784.048 C 924.534 783.143 913.695 782.462 902.846 782.006 C 885.356 781.3 867.859 780.809 850.357 780.534 C 842.779 780.37 828.762 780.5 821.661 779.42 L 820.57 777.68 C 821.135 776.691 821.666 775.265 822.615 775.25 C 851.707 774.781 931.986 775.401 955.821 781.69 L 958.907 785.822 z" fill="rgb(17,38,45)" transform="translate(0,0)"></path>
<path d="M 952.463 757.928 C 955.929 762.158 958.596 765.695 961.775 770.103 C 961.619 777.618 965.173 783.412 972.243 786.421 L 974.355 790.042 C 971.056 791.506 970.952 791.616 968.918 795.492 L 965.362 791.248 C 963.312 789.392 961.047 787.593 958.907 785.822 L 955.821 781.69 L 951.356 771.209 C 952.52 771.915 953.978 773.416 954.985 774.348 L 957.083 773.875 C 959.184 769.332 953.972 763.349 952.463 757.928 z" fill="rgb(254,159,51)" transform="translate(0,0)"></path>
<path d="M 1043.29 553.198 C 1068.46 584.54 1091.47 633.404 1087.23 674.546 C 1082.04 724.887 1037.41 759.862 993.562 777.454 C 987.311 779.962 978.167 783.36 972.243 786.421 C 965.173 783.412 961.619 777.618 961.775 770.103 C 964.937 763.06 962.137 746.029 960.955 738.849 C 950.839 677.417 950.309 634.993 998.712 590.032 C 1013.1 576.663 1026.3 564.875 1043.29 553.198 z" fill="rgb(208,73,69)" transform="translate(0,0)"></path>
<path d="M 1023.47 643.188 C 1026.77 643.7 1025.69 643.098 1028.12 644.973 C 1032.15 668.5 1010.23 719.019 994.594 737.418 C 993.492 738.131 993.219 738.064 991.914 738.449 C 990.142 734.29 997.632 725.045 1000.42 720.675 C 1014.93 697.955 1022.36 669.873 1023.47 643.188 z" fill="rgb(17,38,45)" transform="translate(0,0)"></path>
<path d="M 975.404 1260.98 C 982.187 1266.23 1002.72 1273.23 1011.55 1277.93 C 1099.51 1324.74 1107.44 1423.08 1048.13 1496.95 C 970.177 1440.15 939.573 1376.62 968.122 1280.84 C 969.272 1276.98 968.412 1275.96 965.583 1273.73 C 965.298 1269.27 972.358 1263.55 975.404 1260.98 z" fill="rgb(208,73,69)" transform="translate(0,0)"></path>
<path d="M 986.739 1317.51 C 988.773 1317.54 991.164 1317.58 992.626 1319.07 C 1003.76 1330.41 1034.34 1381.45 1036.03 1394.71 C 1033.66 1395.46 1034.54 1395.4 1032.03 1394.97 C 1025.12 1384.7 1016.95 1364 1009.49 1352.06 C 1004.01 1343.28 989.96 1324.83 986.739 1317.51 z" fill="rgb(17,38,45)" transform="translate(0,0)"></path>
<path d="M 1260.68 1014.64 C 1292.08 985.367 1319.21 957.558 1366.03 958.874 C 1410.3 960.118 1453.38 998.157 1488.23 1024.75 C 1476.28 1034.82 1463.77 1043.91 1451.24 1053.07 C 1422.15 1074.34 1391.63 1094.06 1353.77 1090.69 C 1313.7 1087.13 1287.12 1061.76 1260.65 1034.75 L 1262.99 1027.96 C 1265.35 1021.2 1264.44 1020.49 1260.68 1014.64 z" fill="rgb(208,73,69)" transform="translate(0,0)"></path>
<path d="M 1270.31 1024.33 C 1302.99 1024.11 1348.39 1023.62 1382.14 1024.48 C 1383.39 1024.51 1384.14 1027.11 1384.88 1028.69 C 1376.97 1029.75 1354.78 1029.06 1345.7 1029.13 C 1324.97 1029.29 1303.63 1029.12 1282.87 1028.93 C 1276.63 1028.87 1274.34 1028.7 1270.31 1024.33 z" fill="rgb(17,38,45)" transform="translate(0,0)"></path>
<path d="M 1178.26 929.745 L 1180.21 931.489 C 1182.03 933.531 1182.63 934.36 1184.76 936.115 C 1202.7 957.305 1222.3 975.61 1241.44 995.644 C 1245.76 1000.17 1257.96 1011.05 1260.68 1014.64 C 1264.44 1020.49 1265.35 1021.2 1262.99 1027.96 L 1260.65 1034.75 C 1243.42 1052.25 1226.33 1069.89 1209.38 1087.67 C 1204.13 1093.16 1190.81 1107.97 1186.11 1111.91 C 1182.51 1111.28 1180.72 1111.39 1178.22 1108.79 C 1202.66 1081.89 1229.05 1056.3 1253.2 1028.91 C 1221.76 1027.44 1190.03 1028.8 1158.56 1028.03 C 1155.94 1027.96 1155.88 1027.41 1154.03 1025.86 C 1153.86 1022.59 1153.41 1024.04 1155.59 1021.41 C 1160.86 1018.83 1240.88 1019.61 1251.36 1019.91 C 1225.86 994.123 1198.4 963.013 1173.11 936.178 L 1178.26 929.745 z" fill="rgb(224,181,122)" transform="translate(0,0)"></path>
<path d="M 971.562 1251.81 C 971.606 1259.12 966.895 1258.88 964.304 1266.18 L 965.313 1266.59 C 979.151 1258.15 978.442 1244.79 987.434 1238.76 C 983.527 1246.73 979.846 1253.28 975.404 1260.98 C 972.358 1263.55 965.298 1269.27 965.583 1273.73 C 941.243 1316.48 870.192 1388.56 832.632 1421.19 C 818.788 1433.22 794.158 1451.2 778.534 1463.94 C 780.399 1456.37 792.522 1445.03 798.198 1438.97 C 800.45 1437.57 803.774 1434.88 805.995 1433.18 L 811.395 1428.6 C 851.554 1396.93 890.289 1356.27 923.724 1317.3 C 934.623 1305.85 945.821 1289.16 955.318 1276.05 C 956.297 1275.04 958.125 1272.28 959.03 1271 C 960.2 1267.39 965.203 1260.41 967.507 1257.47 L 971.562 1251.81 z" fill="url(#Gradient2)" transform="translate(0,0)"></path>
<path d="M 817.291 613.134 C 859.418 645.273 903.6 693.563 935.891 735.308 C 938.527 738.716 951.153 754.882 952.463 757.928 C 953.972 763.349 959.184 769.332 957.083 773.875 L 954.985 774.348 C 953.978 773.416 952.52 771.915 951.356 771.209 C 950.249 770.629 949.172 768.76 948.37 767.661 C 944.584 760.745 938.014 751.987 933.142 745.587 C 897.734 699.077 855.987 655.531 811.16 618.111 C 811.764 615.441 815.056 614.372 817.291 613.134 z" fill="url(#Gradient1)" transform="translate(0,0)"></path>
<path d="M 968.918 795.492 C 970.952 791.616 971.056 791.506 974.355 790.042 C 987.283 809.834 996.354 826.272 1005.99 847.983 C 1010.53 858.206 1015.66 871.786 1020.39 881.35 C 1017.92 882.463 1015.96 883.259 1013.67 884.745 C 999.917 852.979 987.73 824.583 968.918 795.492 z" fill="rgb(224,181,122)" transform="translate(0,0)"></path>
<metadata><recraft-signature>{"signed_by": "recraft", "signature_b64": "oF8p+4NCt0nyMr2FihrGAXJkpNcN20vW1vRmVW4Q5A0S8+TH/b2zckfuWmbJy/gNoiWGP3h/eAifBMpkoozSBg==", "signing_algo": "Ed25519", "generation_timestamp": 1772035078, "identifier": "ee515b4b-4836-4508-b4b3-bcd838dc5393"}</recraft-signature></metadata></svg>